<svg width="91" height="24" viewBox="0 0 91 24" fill="none" xmlns="http://www.w3.org/2000/svg">
<g clip-path="url(#clip0_1_808)">
<path d="M11 4.84V8.36H5.44V10.32H9.44V13.66H5.44V19H1V4.84H11Z" fill="#FEB144"/>
<path d="M10.4 13.36C10.4 12.1733 10.6 11.1467 11 10.28C11.4133 9.4 11.9733 8.73333 12.68 8.28C13.3867 7.81333 14.18 7.58 15.06 7.58C15.7933 7.58 16.4267 7.73333 16.96 8.04C17.4933 8.33333 17.9 8.74 18.18 9.26V7.72H22.6V19H18.18V17.46C17.9 17.98 17.4933 18.3933 16.96 18.7C16.4267 18.9933 15.7933 19.14 15.06 19.14C14.18 19.14 13.3867 18.9133 12.68 18.46C11.9733 17.9933 11.4133 17.3267 11 16.46C10.6 15.58 10.4 14.5467 10.4 13.36ZM18.18 13.36C18.18 12.76 18.0267 12.2933 17.72 11.96C17.4133 11.6267 17.02 11.46 16.54 11.46C16.06 11.46 15.6667 11.6267 15.36 11.96C15.0533 12.2933 14.9 12.76 14.9 13.36C14.9 13.96 15.0533 14.4267 15.36 14.76C15.6667 15.0933 16.06 15.26 16.54 15.26C17.02 15.26 17.4133 15.0933 17.72 14.76C18.0267 14.4267 18.18 13.96 18.18 13.36ZM29.6138 19.14C28.5471 19.14 27.6004 18.9667 26.7738 18.62C25.9604 18.2733 25.3138 17.7933 24.8338 17.18C24.3538 16.5667 24.0804 15.8733 24.0138 15.1H28.2738C28.3271 15.4333 28.4671 15.68 28.6938 15.84C28.9338 16 29.2338 16.08 29.5938 16.08C29.8204 16.08 30.0004 16.0333 30.1338 15.94C30.2671 15.8333 30.3338 15.7067 30.3338 15.56C30.3338 15.3067 30.1938 15.1267 29.9138 15.02C29.6338 14.9133 29.1604 14.7933 28.4938 14.66C27.6804 14.5 27.0071 14.3267 26.4738 14.14C25.9538 13.9533 25.4938 13.6333 25.0938 13.18C24.7071 12.7267 24.5138 12.1 24.5138 11.3C24.5138 10.6067 24.6938 9.98 25.0538 9.42C25.4271 8.84667 25.9738 8.4 26.6938 8.08C27.4138 7.74667 28.2871 7.58 29.3138 7.58C30.8338 7.58 32.0204 7.95333 32.8738 8.7C33.7404 9.44667 34.2604 10.42 34.4338 11.62H30.4938C30.4271 11.3133 30.2871 11.08 30.0738 10.92C29.8604 10.7467 29.5738 10.66 29.2138 10.66C28.9871 10.66 28.8138 10.7067 28.6938 10.8C28.5738 10.88 28.5138 11.0067 28.5138 11.18C28.5138 11.4067 28.6538 11.58 28.9338 11.7C29.2138 11.8067 29.6604 11.92 30.2738 12.04C31.0871 12.2 31.7738 12.38 32.3338 12.58C32.8938 12.78 33.3804 13.1267 33.7938 13.62C34.2071 14.1 34.4138 14.7667 34.4138 15.62C34.4138 16.2867 34.2204 16.8867 33.8338 17.42C33.4471 17.9533 32.8871 18.3733 32.1538 18.68C31.4338 18.9867 30.5871 19.14 29.6138 19.14ZM44.0758 7.64C45.3691 7.64 46.3758 8.07333 47.0958 8.94C47.8291 9.80667 48.1958 10.98 48.1958 12.46V19H43.7758V13.02C43.7758 12.4867 43.6291 12.0667 43.3358 11.76C43.0558 11.44 42.6758 11.28 42.1958 11.28C41.7024 11.28 41.3158 11.44 41.0358 11.76C40.7558 12.0667 40.6158 12.4867 40.6158 13.02V19H36.1758V4.2H40.6158V9.44C40.9624 8.90667 41.4224 8.47333 41.9958 8.14C42.5824 7.80667 43.2758 7.64 44.0758 7.64ZM57.1411 15.22V19H55.4611C52.3678 19 50.8211 17.46 50.8211 14.38V11.42H49.4211V7.72H50.8211V5H55.2611V7.72H57.1011V11.42H55.2611V14.46C55.2611 14.7267 55.3211 14.92 55.4411 15.04C55.5744 15.16 55.7878 15.22 56.0811 15.22H57.1411ZM61.072 6.82C60.2987 6.82 59.6787 6.61333 59.212 6.2C58.7454 5.78667 58.512 5.26667 58.512 4.64C58.512 4 58.7454 3.47333 59.212 3.06C59.6787 2.63333 60.2987 2.42 61.072 2.42C61.832 2.42 62.4454 2.63333 62.912 3.06C63.3787 3.47333 63.612 4 63.612 4.64C63.612 5.26667 63.3787 5.78667 62.912 6.2C62.4454 6.61333 61.832 6.82 61.072 6.82ZM63.272 7.72V19H58.832V7.72H63.272ZM70.6373 19.14C69.504 19.14 68.484 18.9067 67.5773 18.44C66.6707 17.9733 65.9573 17.3067 65.4373 16.44C64.9307 15.56 64.6773 14.5333 64.6773 13.36C64.6773 12.1867 64.9307 11.1667 65.4373 10.3C65.9573 9.42 66.6707 8.74667 67.5773 8.28C68.484 7.81333 69.504 7.58 70.6373 7.58C71.7707 7.58 72.7907 7.81333 73.6973 8.28C74.604 8.74667 75.3107 9.42 75.8173 10.3C76.3373 11.1667 76.5973 12.1867 76.5973 13.36C76.5973 14.5333 76.3373 15.56 75.8173 16.44C75.3107 17.3067 74.604 17.9733 73.6973 18.44C72.7907 18.9067 71.7707 19.14 70.6373 19.14ZM70.6373 15.3C71.0507 15.3 71.3973 15.14 71.6773 14.82C71.9573 14.4867 72.0973 14 72.0973 13.36C72.0973 12.72 71.9573 12.24 71.6773 11.92C71.3973 11.5867 71.0507 11.42 70.6373 11.42C70.224 11.42 69.8773 11.5867 69.5973 11.92C69.3173 12.24 69.1773 12.72 69.1773 13.36C69.1773 14 69.3107 14.4867 69.5773 14.82C69.8573 15.14 70.2107 15.3 70.6373 15.3ZM85.8922 7.64C87.1855 7.64 88.1922 8.07333 88.9122 8.94C89.6455 9.80667 90.0122 10.98 90.0122 12.46V19H85.5922V13.02C85.5922 12.4867 85.4455 12.0667 85.1522 11.76C84.8722 11.44 84.4922 11.28 84.0122 11.28C83.5189 11.28 83.1322 11.44 82.8522 11.76C82.5722 12.0667 82.4322 12.4867 82.4322 13.02V19H77.9922V7.72H82.4322V9.44C82.7789 8.90667 83.2389 8.47333 83.8122 8.14C84.3989 7.80667 85.0922 7.64 85.8922 7.64Z" fill="black"/>
</g>
<defs>
<clipPath id="clip0_1_808">
<rect width="91" height="24" fill="white"/>
</clipPath>
</defs>
</svg>
